:FULLY-SPECIFIED
:FORCE-ALL-JOINTS-BE-3DOF
:DEGREES
33
root 8.28299 16.1138 -31.9861 6.37872 -5.71777 -1.6635
lfemur -34.6565 7.16469 -19.9989
ltibia 38.7589 -0 0
lfoot -12.1735 7.80561 -0.0104642
ltoes -7.57981 0 0
rfemur -5.17635 1.77988 22.4853
rtibia 39.0999 -0 0
rfoot 5.28764 -5.04643 -0.211263
rtoes -0.750888 0 0
lowerback -4.7471 0.402237 -0.685612
upperback -1.9414 0.533196 2.57605
thorax 0.624741 0.279497 3.06358
lowerneck -20.6322 -4.63641 -12.4942
upperneck 15.738 -5.69632 14.8058
head 9.17935 -1.90616 6.46959
lclavicle 4.32886e-15 1.21487e-14 -5.95985e-32
lhumerus -38.4016 -3.69093 87.4169
lradius 23.7874 -0 0
lwrist 1.35888 0 0
lhand -4.71254 -19.9455 0.209246
lfingers 7.12502 -0 0
lthumb 21.0522 8.72717 0.141177
rclavicle 4.32886e-15 1.21487e-14 -5.95985e-32
rhumerus -41.208 15.6758 -88.0126
rradius 46.6632 -0 0
rwrist -23.74 0 0
rhand -31.285 -25.7617 -0.000158238
rfingers 7.12502 -0 0
rthumb -4.55816 -55.6853 -0.000745536
34
root 8.30852 16.1176 -31.8378 6.35166 -5.9371 -1.59908
lfemur -34.4686 7.194 -20.1116
ltibia 38.5979 -0 0
lfoot -12.0971 7.78869 -0.010419
ltoes -7.4464 0 0
rfemur -5.02286 1.69811 22.2435
rtibia 39.5681 -0 0
rfoot 5.45306 -5.20432 -0.210352
rtoes -0.774353 0 0
lowerback -4.7612 0.408683 -0.736421
upperback -1.9546 0.544074 2.5766
thorax 0.617905 0.28529 3.09346
lowerneck -20.6938 -4.61914 -12.4681
upperneck 15.8017 -5.66589 14.7402
head 9.20394 -1.89426 6.44778
lclavicle 4.26613e-15 1.20314e-14 -5.93416e-32
lhumerus -38.4792 -3.71238 87.4537
lradius 23.6743 -0 0
lwrist 1.17304 0 0
lhand -4.44406 -19.8491 0.208342
lfingers 7.12502 -0 0
lthumb 21.31 8.7949 0.140568
rclavicle 4.26613e-15 1.20314e-14 -5.93416e-32
rhumerus -41.2819 15.6176 -88.1329
rradius 46.3652 -0 0
rwrist -23.5891 0 0
rhand -31.2251 -25.7621 -0.000157556
rfingers 7.12502 -0 0
rthumb -4.50033 -55.6869 -0.000742322
35
root 8.33406 16.1213 -31.6895 6.32433 -6.1564 -1.53453
lfemur -34.2808 7.22367 -20.2242
ltibia 38.4369 -0 0
lfoot -12.0206 7.77178 -0.0103514
ltoes -7.313 0 0
rfemur -4.86903 1.61698 22.0015
rtibia 40.0362 -0 0
rfoot 5.61848 -5.36221 -0.208984
rtoes -0.797818 0 0
lowerback -4.7753 0.415116 -0.787231
upperback -1.9678 0.554951 2.57715
thorax 0.611071 0.291086 3.12334
lowerneck -20.7553 -4.60185 -12.4421
upperneck 15.8654 -5.6354 14.6746
head 9.22853 -1.88236 6.42598
lclavicle 4.2034e-15 1.19141e-14 -5.89563e-32
lhumerus -38.5568 -3.73378 87.4906
lradius 23.5613 -0 0
lwrist 0.987211 0 0
lhand -4.17558 -19.7527 0.206987
lfingers 7.12502 -0 0
lthumb 21.5679 8.86262 0.139654
rclavicle 4.2034e-15 1.19141e-14 -5.89563e-32
rhumerus -41.3555 15.5593 -88.2532
rradius 46.0672 -0 0
rwrist -23.4382 0 0
rhand -31.1652 -25.7624 -0.000156533
rfingers 7.12502 -0 0
rthumb -4.4425 -55.6885 -0.000737501
36
root 8.35959 16.1251 -31.5411 6.29675 -6.37566 -1.46985
lfemur -34.093 7.25371 -20.3368
ltibia 38.2759 -0 0
lfoot -11.9442 7.75487 -0.0102612
ltoes -7.1796 0 0
rfemur -4.71487 1.53651 21.7593
rtibia 40.5043 -0 0
rfoot 5.78389 -5.52009 -0.207161
rtoes -0.821284 0 0
lowerback -4.78941 0.421537 -0.838043
upperback -1.98101 0.565829 2.5777
thorax 0.604241 0.296885 3.15322
lowerneck -20.8168 -4.58452 -12.4161
upperneck 15.929 -5.60483 14.6091
head 9.25311 -1.87044 6.40418
lclavicle 4.14067e-15 1.17967e-14 -5.84425e-32
lhumerus -38.6344 -3.75513 87.5275
lradius 23.4482 -0 0
lwrist 0.801377 0 0
lhand -3.90711 -19.6563 0.205179
lfingers 7.12502 -0 0
lthumb 21.8257 8.93034 0.138434
rclavicle 4.14067e-15 1.17967e-14 -5.84425e-32
rhumerus -41.429 15.5009 -88.3732
rradius 45.7692 -0 0
rwrist -23.2872 0 0
rhand -31.1053 -25.7627 -0.000155168
rfingers 7.12502 -0 0
rthumb -4.38467 -55.6901 -0.000731074
37
root 8.38512 16.1288 -31.3928 6.2689 -6.5949 -1.40503
lfemur -33.9052 7.28411 -20.4492
ltibia 38.115 -0 0
lfoot -11.8678 7.73796 -0.0101484
ltoes -7.04619 0 0
rfemur -4.56038 1.45668 21.5169
rtibia 40.9725 -0 0
rfoot 5.9493 -5.67797 -0.204881
rtoes -0.844749 0 0
lowerback -4.80352 0.427945 -0.888857
upperback -1.99421 0.576707 2.57825
thorax 0.597414 0.302688 3.18309
lowerneck -20.8784 -4.56717 -12.3901
upperneck 15.9926 -5.57419 14.5437
head 9.27769 -1.85852 6.38238
lclavicle 4.07794e-15 1.16794e-14 -5.78003e-32
lhumerus -38.7121 -3.77643 87.5644
lradius 23.3351 -0 0
lwrist 0.615542 0 0
lhand -3.63864 -19.5599 0.202921
lfingers 7.12502 -0 0
lthumb 22.0835 8.99806 0.136911
rclavicle 4.07794e-15 1.16794e-14 -5.78003e-32
rhumerus -41.5024 15.4423 -88.4932
rradius 45.4713 -0 0
rwrist -23.1363 0 0
rhand -31.0455 -25.763 -0.000153463
rfingers 7.12502 -0 0
rthumb -4.32684 -55.6917 -0.000723039
